<?xml version="1.0" standalone="no"?>
<!DOCTYPE svg PUBLIC "-//W3C//DTD SVG 20010904//EN"
 "http://www.w3.org/TR/2001/REC-SVG-20010904/DTD/svg10.dtd">
<svg version="1.0" xmlns="http://www.w3.org/2000/svg"
 width="1024.000000pt" height="1024.000000pt" viewBox="0 0 1024.000000 1024.000000"
 preserveAspectRatio="xMidYMid meet">
<metadata>
Created by potrace 1.11, written by Peter Selinger 2001-2013
</metadata>
<g transform="translate(0.000000,1024.000000) scale(0.100000,-0.100000)"
fill="#000000" stroke="none">
<path d="M1669 10236 c-2 -2 -22 -6 -45 -9 -109 -15 -238 -90 -291 -171 -33
-49 -48 -89 -58 -161 -3 -22 -10 -62 -15 -90 -5 -27 -12 -68 -15 -90 -3 -22
-7 -53 -10 -70 -11 -57 -24 -140 -30 -180 -3 -23 -8 -52 -10 -65 -3 -14 -8
-43 -11 -65 -3 -22 -9 -65 -14 -95 -5 -30 -12 -77 -15 -105 -4 -27 -8 -57 -10
-65 -2 -8 -7 -35 -10 -60 -3 -25 -8 -56 -10 -70 -6 -36 -14 -98 -20 -148 -3
-24 -7 -53 -10 -65 -3 -12 -7 -42 -10 -67 -2 -25 -7 -56 -9 -70 -2 -14 -7 -52
-11 -85 -4 -32 -8 -62 -10 -65 -1 -3 -6 -36 -9 -75 -3 -38 -9 -83 -12 -100 -3
-16 -7 -48 -9 -70 -2 -37 -10 -107 -21 -195 -2 -19 -7 -62 -10 -95 -2 -33 -7
-78 -9 -100 -14 -118 -20 -262 -19 -450 0 -191 4 -261 19 -365 3 -19 7 -48 10
-65 2 -16 9 -55 15 -85 7 -30 13 -64 15 -75 10 -58 74 -262 101 -322 8 -17 14
-34 14 -38 0 -17 124 -252 169 -320 28 -43 51 -81 51 -86 0 -4 3 -9 8 -11 4
-1 34 -37 66 -78 67 -84 230 -250 291 -295 22 -17 51 -40 65 -53 14 -12 33
-25 43 -28 9 -3 17 -10 17 -15 0 -5 4 -9 9 -9 5 0 37 -18 70 -40 74 -49 204
-117 296 -155 114 -47 114 -47 109 -113 -2 -31 -6 -99 -8 -150 -2 -51 -6 -96
-9 -99 -3 -3 -2 -16 3 -29 5 -13 6 -24 2 -24 -4 0 -7 -21 -8 -48 0 -26 -4
-103 -8 -172 -17 -294 -19 -339 -20 -407 0 -39 -3 -70 -6 -68 -3 2 -5 -27 -6
-63 0 -37 -4 -123 -7 -192 -10 -168 -17 -311 -21 -393 -2 -37 -6 -70 -9 -74
-4 -3 -2 -13 3 -23 5 -10 7 -20 4 -23 -4 -3 -8 -41 -10 -84 -2 -43 -6 -118 -9
-168 -3 -49 -8 -135 -10 -190 -3 -55 -8 -138 -10 -185 -3 -47 -7 -132 -10
-190 -2 -58 -7 -139 -10 -180 -2 -41 -7 -124 -10 -185 -4 -60 -8 -144 -11
-185 -3 -41 -5 -86 -4 -100 1 -14 1 -29 1 -35 0 -5 -3 -35 -5 -65 -5 -53 -10
-141 -21 -360 -3 -58 -7 -134 -10 -170 -2 -36 -7 -123 -11 -195 -3 -71 -8
-150 -9 -175 -25 -418 -26 -568 -2 -639 46 -137 162 -254 302 -307 47 -18 92
-19 780 -21 l730 -3 75 26 c99 34 183 99 259 199 19 25 62 149 66 188 2 23 4
43 5 45 3 3 2 51 0 55 -2 2 -5 55 -14 262 -4 77 -9 172 -11 210 -7 102 -16
257 -20 360 -2 50 -6 126 -9 170 -10 143 -19 328 -20 417 -1 49 -3 88 -6 88
-3 0 -6 28 -6 63 -1 34 -4 114 -8 177 -4 63 -9 158 -11 210 -3 52 -7 127 -10
165 -3 39 -8 122 -10 185 -3 63 -7 149 -10 190 -6 87 -15 252 -20 360 -15 290
-17 318 -41 732 -4 64 -5 127 -2 147 0 3 -1 8 -2 11 -4 8 -11 125 -25 415 -3
61 -8 142 -11 180 -2 39 -7 117 -10 175 -2 58 -6 135 -8 172 -3 62 -2 68 18
74 112 34 340 158 516 281 159 110 424 398 506 549 12 22 30 55 40 74 10 19
21 37 24 40 10 9 68 134 100 215 42 104 55 146 94 295 24 92 31 127 42 200 2
19 7 46 9 60 10 51 18 168 19 252 1 49 4 88 7 88 3 0 4 15 2 33 -2 17 -5 86
-8 152 -3 66 -7 143 -9 170 -8 96 -17 190 -22 235 -3 25 -7 68 -10 95 -2 28
-6 66 -9 85 -2 19 -7 60 -10 90 -5 51 -10 88 -20 165 -8 57 -26 197 -30 229
-2 17 -6 42 -9 56 -2 14 -8 52 -12 85 -4 33 -8 62 -9 65 0 3 -5 34 -9 70 -4
36 -9 72 -11 80 -1 8 -10 65 -19 126 -9 60 -19 121 -21 135 -2 13 -7 44 -9 69
-3 25 -8 56 -11 70 -3 14 -8 41 -10 60 -3 19 -7 46 -10 60 -2 13 -7 42 -10 65
-3 22 -10 65 -15 95 -5 30 -12 73 -15 95 -3 22 -10 63 -15 90 -5 28 -11 64
-14 80 -17 111 -39 158 -102 220 -48 48 -141 97 -219 116 -28 6 -94 13 -148
14 -201 5 -368 -64 -448 -184 -42 -64 -65 -153 -46 -178 5 -7 6 -13 1 -13 -10
0 -11 -180 -1 -196 3 -6 4 -14 0 -18 -9 -8 -8 -70 1 -84 4 -7 4 -12 -1 -12
-10 0 -10 -131 1 -148 4 -7 4 -12 -1 -12 -7 0 -7 -62 -3 -285 0 -5 -1 -36 -3
-67 -1 -32 1 -58 6 -58 4 0 5 -5 1 -12 -11 -17 -11 -108 -1 -108 5 0 5 -5 1
-12 -11 -17 -11 -108 -1 -108 5 0 5 -5 1 -12 -10 -15 -9 -111 0 -127 4 -6 4
-11 -1 -11 -10 0 -10 -131 1 -148 4 -7 4 -12 -1 -12 -10 0 -10 -221 1 -238 4
-6 3 -12 -1 -12 -5 0 -7 -26 -6 -57 2 -32 3 -62 3 -68 0 -5 -1 -36 -3 -67 -1
-32 1 -58 6 -58 4 0 5 -5 1 -12 -10 -16 -11 -169 -1 -175 4 -2 4 -9 1 -15 -11
-17 -10 -218 0 -218 5 0 4 -6 -1 -12 -5 -7 -7 -35 -6 -63 2 -27 3 -56 3 -62 0
-13 0 -92 0 -115 0 -7 -1 -31 -3 -53 -2 -22 1 -48 5 -57 6 -12 5 -18 -2 -18
-6 0 -8 -5 -5 -10 11 -18 -5 -48 -33 -59 -28 -11 -79 -23 -97 -22 -97 3 -166
19 -180 41 -4 7 -9 42 -11 79 -6 126 -15 275 -19 351 -7 96 -14 220 -20 340
-7 142 -14 254 -21 365 -3 55 -7 144 -8 197 0 54 -3 98 -6 98 -3 0 -6 28 -7
63 -2 119 -10 224 -17 235 -3 6 -2 13 4 17 6 4 8 10 6 14 -3 4 -8 50 -11 102
-3 52 -8 123 -10 159 -5 69 -14 225 -20 350 -2 41 -6 118 -10 170 -3 52 -7
138 -10 191 -7 152 -28 217 -94 286 -45 48 -151 106 -216 119 -11 2 -31 7 -45
10 -82 18 -228 10 -342 -20 -28 -8 -92 -39 -106 -53 -7 -7 -17 -13 -21 -13
-13 0 -56 -43 -90 -90 -40 -55 -50 -93 -56 -216 -3 -54 -8 -133 -10 -174 -3
-41 -7 -120 -10 -175 -3 -55 -7 -136 -10 -180 -5 -80 -11 -187 -20 -365 -3
-52 -8 -131 -10 -175 -3 -44 -8 -120 -10 -170 -3 -49 -7 -128 -10 -175 -11
-196 -16 -280 -20 -360 -2 -47 -6 -121 -9 -165 -6 -80 -13 -202 -21 -350 -2
-44 -7 -129 -10 -190 -4 -60 -8 -144 -10 -185 -2 -41 -4 -79 -5 -83 0 -4 -18
-16 -40 -26 -47 -21 -188 -23 -237 -2 -33 13 -61 65 -42 76 5 4 5 13 -1 25 -6
12 -7 21 0 25 6 4 6 15 0 30 -5 14 -6 25 -1 25 5 0 5 16 1 35 -4 20 -4 38 1
41 5 3 4 15 -3 27 -6 12 -11 22 -11 22 0 0 5 10 11 22 8 14 8 24 2 28 -6 4 -6
15 0 30 6 16 6 25 0 25 -6 0 -6 9 0 25 6 15 6 26 0 30 -7 4 -6 13 0 25 6 12 7
21 0 25 -6 4 -6 15 0 30 6 16 6 25 0 25 -6 0 -6 10 0 26 6 16 6 32 1 43 -5 9
-6 23 -1 31 4 7 4 24 -1 37 -5 14 -5 23 1 23 6 0 6 9 0 24 -5 13 -6 26 -3 29
7 8 7 133 -1 146 -4 6 -3 11 3 11 7 0 7 8 1 25 -6 15 -6 26 0 30 7 4 6 13 0
25 -6 12 -7 21 0 25 6 3 6 15 0 29 -5 13 -7 26 -4 28 8 8 10 99 3 104 -4 2 -4
17 1 32 4 16 4 35 -1 43 -4 8 -4 21 1 29 4 7 4 24 -1 37 -5 14 -5 23 1 23 6 0
6 9 0 24 -5 13 -6 26 -3 29 7 8 7 133 -1 146 -4 6 -3 11 3 11 7 0 7 8 1 25 -6
15 -6 26 0 30 7 4 6 13 0 25 -6 12 -7 21 0 25 6 3 6 15 0 29 -5 13 -7 26 -4
28 8 8 10 99 3 104 -4 2 -4 17 1 32 4 16 4 35 -1 43 -4 8 -4 21 1 29 4 7 4 24
-1 37 -5 14 -5 23 1 23 6 0 6 9 0 24 -5 13 -6 26 -3 29 7 8 7 133 -1 146 -4 6
-3 11 3 11 7 0 7 8 1 25 -6 15 -6 26 0 30 7 4 6 13 0 25 -6 12 -7 21 0 25 6 3
6 15 0 29 -5 13 -7 26 -4 28 8 8 10 99 3 104 -4 2 -4 17 1 32 4 16 4 35 -1 43
-4 8 -4 21 1 29 4 7 4 24 -1 37 -5 14 -5 23 1 23 6 0 6 9 1 23 -5 13 -5 30 -1
37 5 8 4 22 -1 31 -6 11 -5 20 1 24 7 4 7 12 0 25 -7 13 -7 21 0 25 6 4 7 11
4 17 -4 5 -8 25 -10 43 -8 90 -95 197 -196 243 -16 6 -38 17 -50 22 -46 21
-136 36 -225 38 -50 0 -92 -1 -94 -2z"/>
<path d="M8668 10234 c-3 -2 -22 -6 -44 -8 -21 -3 -39 -5 -39 -6 0 -1 -9 -3
-20 -4 -17 -2 -55 -9 -110 -21 -38 -9 -239 -81 -292 -105 -35 -17 -69 -30 -74
-30 -5 0 -9 -4 -9 -8 0 -5 -6 -9 -12 -9 -7 0 -60 -27 -118 -59 -149 -85 -154
-88 -160 -94 -3 -3 -25 -18 -50 -35 -25 -16 -57 -39 -71 -50 -14 -11 -36 -27
-49 -35 -12 -8 -28 -19 -34 -25 -6 -5 -34 -28 -61 -50 -28 -22 -55 -44 -62
-50 -6 -5 -35 -30 -64 -55 -168 -143 -415 -412 -556 -605 -40 -55 -76 -104
-81 -110 -4 -5 -30 -44 -57 -85 -28 -41 -52 -77 -55 -80 -3 -3 -14 -21 -24
-40 -10 -19 -43 -77 -72 -128 -75 -131 -211 -413 -219 -452 -2 -10 -8 -26 -13
-36 -15 -28 -43 -98 -46 -114 -2 -8 -6 -22 -9 -30 -48 -127 -132 -455 -139
-538 -1 -19 -6 -36 -10 -38 -5 -3 -6 -9 -3 -14 2 -4 1 -32 -4 -61 -15 -86 -22
-175 -26 -311 -2 -71 -7 -132 -10 -138 -3 -5 -3 -10 2 -10 4 0 8 -37 9 -83 1
-106 19 -303 30 -337 3 -8 8 -33 10 -55 3 -22 10 -58 16 -80 6 -22 12 -50 14
-62 9 -74 96 -340 160 -489 49 -117 165 -345 184 -364 3 -3 12 -18 20 -35 8
-16 17 -32 21 -35 12 -11 69 -102 69 -110 0 -4 4 -10 8 -12 5 -1 23 -25 42
-53 19 -27 40 -56 46 -65 82 -103 155 -193 184 -225 61 -70 343 -349 405 -402
135 -114 152 -129 179 -148 l28 -20 -7 -90 c-4 -49 -9 -112 -11 -140 -3 -27
-6 -72 -8 -100 -4 -50 -13 -168 -22 -260 -2 -27 -7 -81 -9 -120 -12 -154 -14
-174 -19 -236 -7 -78 -15 -179 -21 -256 -2 -32 -7 -83 -9 -113 -5 -53 -12
-135 -21 -265 -9 -112 -15 -167 -21 -176 -3 -5 0 -9 6 -9 6 0 8 -5 4 -11 -7
-12 -9 -27 -18 -159 -4 -47 -8 -105 -11 -130 -7 -81 -15 -174 -21 -250 -3 -41
-7 -97 -9 -125 -2 -27 -6 -81 -9 -120 -3 -38 -8 -99 -12 -135 -3 -36 -8 -83
-9 -105 -13 -164 -16 -206 -20 -250 -2 -27 -7 -84 -10 -125 -3 -41 -8 -100
-11 -130 -3 -30 -7 -84 -9 -120 -2 -36 -4 -65 -5 -65 -4 0 -14 -172 -14 -245
-1 -127 14 -181 75 -272 49 -73 99 -119 170 -158 110 -59 106 -59 789 -59 560
0 631 2 685 17 75 21 158 68 209 119 41 39 104 132 112 161 2 9 11 42 19 72
13 48 15 585 14 4755 0 4206 -2 4706 -16 4759 -30 114 -101 210 -207 280 -82
53 -137 68 -267 72 -65 1 -119 1 -121 -2z"/>
</g>
</svg>
